<?xml version="1.0" encoding="UTF-8" standalone="no"?>
<!-- Created with Inkscape (http://www.inkscape.org/) -->

<svg
   width="409.58774mm"
   height="446.35794mm"
   viewBox="0 0 409.58774 446.35794"
   version="1.1"
   id="svg1"
   xml:space="preserve"
   inkscape:version="1.4.2 (ebf0e940, 2025-05-08)"
   sodipodi:docname="idp_logo.svg"
   xmlns:inkscape="http://www.inkscape.org/namespaces/inkscape"
   xmlns:sodipodi="http://sodipodi.sourceforge.net/DTD/sodipodi-0.dtd"
   xmlns="http://www.w3.org/2000/svg"
   xmlns:svg="http://www.w3.org/2000/svg"><sodipodi:namedview
     id="namedview1"
     pagecolor="#ffffff"
     bordercolor="#000000"
     borderopacity="0.25"
     inkscape:showpageshadow="2"
     inkscape:pageopacity="0.0"
     inkscape:pagecheckerboard="0"
     inkscape:deskcolor="#d1d1d1"
     inkscape:document-units="mm"
     inkscape:zoom="0.18529742"
     inkscape:cx="1424.7365"
     inkscape:cy="844.58813"
     inkscape:window-width="1464"
     inkscape:window-height="916"
     inkscape:window-x="55"
     inkscape:window-y="38"
     inkscape:window-maximized="1"
     inkscape:current-layer="layer1" /><defs
     id="defs1" /><g
     inkscape:label="Layer 1"
     inkscape:groupmode="layer"
     id="layer1"
     transform="translate(43.597932,36.897263)"><circle
       style="fill:#ffffff;fill-opacity:1;stroke-width:0.1"
       id="path3"
       cx="160.58957"
       cy="185.85274"
       r="241.3125" /><path
       id="path2"
       style="fill:#000000;stroke-width:0.1;fill-opacity:1"
       d="M 161.19577 -61.456487 A 257.01923 247.73798 0 0 0 -95.823168 186.28188 A 257.01923 247.73798 0 0 0 161.19577 434.01973 A 257.01923 247.73798 0 0 0 418.21522 186.28188 A 257.01923 247.73798 0 0 0 161.19577 -61.456487 z M 200.37271 -36.890545 C 200.64598 -36.879484 200.99038 -36.855435 201.42277 -36.820265 C 207.09435 -36.358915 211.16276 -35.168461 217.23163 -32.195741 C 223.39574 -29.176381 228.91375 -24.549573 234.17633 -17.987823 C 238.05094 -13.156683 240.22255 -9.4892833 242.74996 -3.5086033 C 243.21119 -2.4172033 243.69803 -1.2861017 243.83207 -0.99506167 C 244.3317 0.089778335 245.39909 3.3402933 246.30789 6.5455633 C 248.55557 14.472963 249.35044 19.225949 250.30868 30.460899 C 250.78194 36.009729 250.85962 52.241752 250.43942 57.832872 C 250.29005 59.820362 250.12688 62.012056 250.07665 62.703376 C 249.95476 64.380736 250.23549 64.118572 252.3685 60.565522 C 253.30069 59.012732 254.65838 56.780214 255.38537 55.604584 C 256.51457 53.778564 259.69725 47.551003 259.69725 47.167373 C 259.69725 47.097173 260.03903 46.293035 260.45689 45.379885 C 262.22739 41.510785 265.01413 32.214435 265.87207 27.315355 C 267.07405 20.451705 267.17122 19.39832 267.30092 11.83723 C 267.41506 5.1835301 267.36324 3.7675583 266.86012 -0.20131167 C 266.54652 -2.6751617 266.17636 -5.1269879 266.03743 -5.6495579 C 265.89851 -6.1721279 265.66671 -7.2436879 265.52273 -8.0308079 C 265.37875 -8.8179279 264.99959 -10.382575 264.67989 -11.508115 C 264.3602 -12.633665 264.15106 -13.607537 264.21532 -13.671807 C 264.37814 -13.834627 267.23325 -13.194429 268.82538 -12.638279 C 270.68461 -11.988829 274.36772 -10.100552 276.15929 -8.8783014 C 279.01407 -6.9306914 281.63599 -4.376162 284.68332 -0.57338198 C 288.10539 3.697068 291.49723 11.589567 293.31432 19.510147 C 296.0138 31.277017 296.10946 47.586602 293.5603 61.395962 C 292.93804 64.766892 291.83688 70.131397 291.40436 71.897647 C 290.82845 74.249457 288.02266 83.82449 287.54413 85.07152 C 287.46123 85.28743 288.33561 84.708633 289.48665 83.785293 C 296.93447 77.810773 305.94733 68.577928 309.33091 63.456818 C 309.75409 62.816328 310.78288 61.268515 311.61708 60.017235 C 312.45129 58.765955 313.218 57.563843 313.32085 57.345563 C 313.4237 57.127283 313.82552 56.406601 314.21382 55.744111 C 315.84742 52.956921 316.4594 51.751683 317.83582 48.614313 C 320.54284 42.444053 322.20363 37.469349 323.90832 30.424209 C 323.98752 30.096789 324.14177 29.828897 324.25093 29.828897 C 324.61087 29.828897 328.71406 34.164782 329.8015 35.694172 C 331.13169 37.564982 333.12556 41.541595 333.95783 43.984105 C 334.30493 45.002755 334.84572 47.205417 335.15931 48.878897 C 335.93314 53.008377 335.98823 61.65083 335.26731 65.81223 C 334.58481 69.7518 333.85984 72.796695 333.09432 74.940355 C 332.1724 77.521975 329.51476 84.145255 329.27233 84.465355 C 329.16212 84.610875 328.43145 85.980093 327.64866 87.508063 C 326.86588 89.036033 326.00401 90.643378 325.73353 91.079938 C 324.88724 92.445888 322.29611 96.365197 322.1477 96.503897 C 322.0698 96.576697 321.47594 97.41009 320.82789 98.35598 C 319.32529 100.54914 319.43876 100.39844 318.23683 101.79556 C 317.67348 102.4504 316.92191 103.35631 316.56665 103.80888 C 315.32 105.39702 312.5177 108.57134 309.70092 111.58515 C 308.13683 113.25864 306.00509 115.63988 304.96425 116.87681 C 303.92341 118.11374 302.87643 119.33413 302.63726 119.58879 C 302.42239 119.81759 302.29143 120.00961 302.31997 120.04613 C 302.32324 120.04966 302.32862 120.05181 302.33547 120.05181 C 302.7081 120.05181 307.54719 117.81665 309.18932 116.88612 C 310.22571 116.29883 311.11944 115.81848 311.17525 115.81848 C 311.32909 115.81848 315.20028 113.48042 316.8302 112.40318 C 317.62121 111.8804 318.47211 111.33379 318.72155 111.18827 C 320.55983 110.11585 329.13716 103.82296 330.07642 102.85751 C 330.14922 102.78271 331.21825 101.82863 332.4525 100.73723 C 336.38324 97.261393 340.86812 92.772195 343.95051 89.227855 C 349.06791 83.343515 349.57237 82.707808 352.92877 77.916918 C 353.61693 76.934658 354.28428 76.13098 354.41188 76.13098 C 354.77576 76.13098 356.22163 80.117539 357.13523 83.640599 C 357.92742 86.695489 357.96696 87.0895 357.97342 92.00598 C 357.97942 96.75738 357.92215 97.402372 357.24737 100.16569 C 356.47652 103.32259 355.37726 106.90379 354.94105 107.67893 C 354.79885 107.93161 354.68267 108.26405 354.68267 108.4179 C 354.68267 108.6673 351.4115 115.39264 350.62762 116.75486 C 350.28922 117.34292 349.00364 119.14612 346.86247 122.03619 C 343.07718 127.14542 333.10456 136.87881 324.91704 143.45504 C 323.13676 144.88497 320.4251 147.19628 319.70341 147.89921 C 319.13392 148.45389 319.07576 149.00638 319.60832 148.802 C 319.8175 148.7217 320.50211 148.52146 321.12968 148.35706 C 322.36455 148.03357 328.02225 146.12456 328.88528 145.74017 C 331.26421 144.68058 331.93927 144.39348 332.05097 144.39348 C 332.40188 144.39348 348.31217 136.57893 352.16861 134.51243 C 355.39338 132.7844 363.2103 129.27498 365.17815 128.67196 C 365.6115 128.53916 365.79365 128.62649 365.92126 129.02853 C 366.33478 130.33142 364.79647 139.50169 363.49918 143.46744 C 362.19754 147.44648 358.67861 154.17505 357.06495 155.77056 C 356.99135 155.84336 356.45486 156.49668 355.87278 157.22267 C 354.4272 159.02564 350.39569 162.95794 348.46444 164.44859 C 347.59132 165.12252 346.75788 165.81217 346.61236 165.98131 C 346.18438 166.47875 338.73138 171.38098 338.40304 171.38098 C 338.36144 171.38098 337.15547 172.07365 335.7231 172.92042 C 334.29074 173.7672 331.92799 175.03408 330.47278 175.73575 C 325.07458 178.33866 322.354 179.58325 322.0521 179.5872 C 321.88144 179.5892 321.56294 179.71755 321.34465 179.87193 C 321.06185 180.07195 322.31668 180.10998 325.71028 180.00526 C 330.03316 179.87187 333.45771 179.52392 337.48423 178.80792 C 342.82034 177.85906 348.12056 176.85435 350.84569 176.27525 C 352.59194 175.90417 354.55648 175.48966 355.21132 175.35438 C 355.86616 175.2191 357.5247 174.86484 358.89688 174.56735 C 362.42949 173.80147 362.42107 173.80056 361.92098 175.019 C 361.69701 175.56471 360.91838 177.20181 360.19086 178.65702 C 358.92578 181.1875 358.52476 181.84109 355.64385 186.06536 C 354.27176 188.07725 351.33885 191.49039 350.07365 192.54765 C 349.63829 192.91145 348.56225 193.81117 347.68258 194.54701 C 343.9255 197.68982 338.59788 200.76095 331.48615 203.88391 C 328.03774 205.3982 316.92489 208.97792 314.48719 209.35954 C 312.72183 209.63591 313.61343 209.92211 317.38055 210.28868 C 322.12354 210.7502 329.50233 210.49318 343.83423 209.36729 C 346.67188 209.14437 350.77955 208.93003 352.96236 208.89084 C 356.82078 208.82154 356.93344 208.83505 357.01069 209.37608 C 357.13101 210.21869 354.64295 214.87169 352.66005 217.51253 C 349.98316 221.07765 346.24003 224.69024 342.6219 227.20083 C 337.11012 231.02538 327.97485 234.3674 318.56653 236.00081 C 315.5311 236.5278 314.23622 236.59711 307.54343 236.59302 C 299.07958 236.58802 299.37719 236.50241 301.42804 238.35519 C 304.50031 241.1308 309.06327 244.1485 322.1384 252.05099 C 325.83571 254.28562 331.10594 258.11966 331.12338 258.58754 C 331.14038 259.0429 326.33731 260.8999 322.9554 261.74549 C 320.13581 262.45048 313.80165 263.1914 310.59285 263.1914 C 301.98066 263.1914 292.74931 261.38767 282.18632 257.64083 C 277.36576 255.93091 277.42382 255.94841 277.42382 256.17219 C 277.42382 256.27482 277.9487 257.44971 278.59015 258.78288 C 280.39899 262.54236 283.39166 266.91571 286.40156 270.1982 C 288.7939 272.80722 293.18776 277.3111 294.22486 278.21735 C 296.47787 280.18607 303.88674 287.89785 303.69146 288.07101 C 303.07454 288.61805 300.5592 288.92299 295.68007 289.04305 C 290.61735 289.16763 290.00059 289.12962 286.41965 288.47151 C 278.65387 287.04428 274.47514 285.6773 267.94636 282.42795 C 262.44364 279.68927 257.86979 276.96148 249.82395 271.61931 C 247.38915 270.00268 246.71728 269.75511 246.87684 270.53358 C 247.41031 273.13644 247.96387 275.19273 249.17438 279.0664 C 249.76141 280.94493 251.52529 284.63788 253.02841 287.13619 C 254.06181 288.85381 257.89358 294.14112 260.91785 298.02286 C 262.99337 300.68686 268.02299 308.18306 268.92511 309.9565 L 269.49717 311.08098 L 268.5794 311.08098 C 264.94038 311.08098 249.17774 308.07764 244.21861 306.4394 C 234.78235 303.32214 226.29955 298.65087 219.67075 292.92188 C 217.51541 291.05911 214.43365 287.805 213.32954 286.22617 C 213.08127 285.87114 212.8136 285.6445 212.73526 285.72284 C 212.2208 286.23729 215.1752 297.30581 216.719 300.64803 C 217.81704 303.0252 220.35196 307.3077 222.11143 309.75806 C 222.79062 310.70394 223.81514 312.25177 224.38829 313.19765 C 224.96143 314.14354 225.90758 315.57653 226.49049 316.38247 C 227.0734 317.18841 228.14518 319.00594 228.87278 320.42098 C 230.41849 323.42707 230.38707 323.50595 227.63357 323.51226 C 225.26877 323.51726 222.77838 322.96468 219.32607 321.66793 C 211.65491 318.78651 204.82896 313.95862 193.71006 303.54914 L 190.03277 300.10646 L 190.18056 303.80752 C 190.42064 309.82001 192.02485 314.61942 196.98945 324.17786 C 202.56767 334.91773 204.61143 339.63581 205.81372 344.55077 C 206.32657 346.64731 206.99853 351.23416 207.13043 353.53834 C 207.27433 356.05227 206.86272 361.83068 206.36149 364.33303 C 204.99484 371.15591 200.69057 379.36797 196.01225 384.07859 C 194.7986 385.30062 193.75231 386.24732 193.68733 386.18234 C 193.62233 386.11734 193.38477 384.10579 193.15919 381.71181 C 192.46743 374.37039 190.7795 367.14854 188.72329 362.73209 C 187.7046 360.54409 185.41381 356.82224 183.55616 354.33777 L 181.77694 351.95911 L 181.61209 355.2664 C 181.26309 362.26198 180.62375 367.6287 179.62565 371.93515 C 178.93548 374.91297 177.45451 380.46988 176.91109 382.12161 C 174.93698 388.12192 173.33418 391.69062 169.06764 399.58411 C 168.06469 401.43967 163.68984 408.17282 162.92176 409.04296 C 162.3951 409.63959 162.29425 409.62177 161.71822 408.83057 C 157.66126 403.25817 151.96688 392.86267 149.55152 386.61952 C 145.87991 377.12929 144.04047 368.38226 143.26405 356.72161 C 143.09933 354.24775 142.93218 352.18933 142.89249 352.14772 C 142.7152 351.96184 138.24935 358.68757 137.00345 361.01695 C 134.83034 365.07985 133.2492 369.76411 132.4337 374.55307 C 131.77097 378.44481 131.71962 378.89938 131.49112 382.91019 C 131.38733 384.73202 131.19426 386.22265 131.06221 386.22265 C 130.54467 386.22265 128.03153 383.5748 126.06871 380.96199 C 123.74612 377.87026 121.00301 372.61793 119.75024 368.86402 C 117.46916 362.02877 117.05519 353.29108 118.64901 345.60911 C 119.68277 340.62655 122.83858 333.3084 128.68923 322.32577 C 129.69702 320.43399 131.0628 317.51697 131.72418 315.84348 C 132.88799 312.89871 134.28423 308.48556 134.28423 307.75302 C 134.28423 307.24351 132.30524 303.60881 130.9232 301.58027 C 130.8828 301.52097 129.83254 302.49478 128.58897 303.74396 C 127.3454 304.99314 125.34987 306.88682 124.15462 307.95249 C 122.95936 309.01816 121.92158 309.95071 121.84882 310.02471 C 120.49076 311.40585 111.92362 317.69556 111.40036 317.69556 C 111.33196 317.69556 110.63422 318.10603 109.85007 318.60765 C 104.84713 321.80799 97.461857 324.01686 93.979717 323.35465 L 92.742066 323.11952 L 93.533749 321.44831 C 93.969449 320.52935 95.657485 317.79091 97.284425 315.36289 C 104.896 304.00352 107.90193 297.54892 109.67178 288.76658 C 109.98957 287.18965 110.19944 285.84949 110.1379 285.78795 C 110.0764 285.72645 109.27085 286.54024 108.34783 287.59663 C 104.08289 292.47781 99.137898 296.69821 94.230348 299.6455 C 89.857518 302.27165 86.423857 303.83522 79.780067 306.2265 C 74.093147 308.27338 63.328415 310.39571 55.726755 310.96833 C 53.535175 311.13341 53.255657 311.10666 53.394597 310.74457 C 53.912637 309.39458 58.699017 302.30954 63.534547 295.73515 C 71.356497 285.10044 73.686236 280.56163 75.241326 272.92775 C 75.528856 271.51624 75.841407 270.23632 75.935857 270.08348 C 76.449167 269.25294 75.263959 269.95277 67.868649 274.84753 C 59.730919 280.23368 57.059513 281.73893 51.028333 284.33739 C 43.291893 287.67055 35.003685 289.27922 26.749195 289.04977 C 21.859165 288.91385 18.9259 288.49805 18.9259 287.94027 C 18.9259 287.7679 20.682074 285.91065 22.828504 283.81288 C 34.930154 271.98559 37.371228 269.36305 41.210328 264.06214 C 42.499668 262.28187 44.718461 258.03498 45.001311 256.80626 L 45.161508 256.10914 L 41.105942 257.55608 C 25.077932 263.27279 11.71372 264.51453 -0.91784981 261.46075 C -4.1305098 260.68407 -7.7847584 259.29683 -7.9835684 258.77875 C -8.1873584 258.24768 -7.7766136 257.86618 -4.5362336 255.57842 C -1.4505036 253.39984 2.2194702 251.10167 7.8134002 247.84453 C 9.6324102 246.78538 12.073189 245.26178 13.237359 244.45869 C 16.285349 242.35606 22.31997 237.57728 22.60888 237.03744 C 22.83978 236.60599 22.412957 236.57863 15.665117 236.5894 C 9.3733874 236.5994 7.9955802 236.52377 4.6384002 235.98427 C -0.84268982 235.1034 -4.1378497 234.2711 -8.5551097 232.65321 C -16.89899 229.59715 -21.879136 226.44405 -27.252676 220.81517 C -30.692146 217.21228 -34.519933 211.12108 -34.519933 209.24999 L -34.519933 208.60713 L -30.352746 208.79007 C -28.060786 208.89078 -22.970868 209.23072 -19.041808 209.54558 C -10.875078 210.20003 8.0502705 210.40841 8.6087005 209.84995 C 8.8220205 209.63662 8.5572021 209.46671 7.6294321 209.22053 C 5.0994921 208.54923 0.22142518 207.10964 -2.1084748 206.3468 C -13.479865 202.62362 -24.482192 196.15394 -29.928482 189.98811 C -33.285872 186.18714 -36.587372 181.31012 -37.688732 178.52473 C -37.890122 178.01541 -38.4501 176.77515 -38.9331 175.76883 C -39.41609 174.76251 -39.8116 173.91578 -39.8116 173.88729 L -39.811083 173.88729 L -39.811083 173.88677 L -39.811083 173.88625 L -39.811083 173.88574 L -39.810566 173.88574 L -39.810566 173.88522 L -39.81005 173.88522 L -39.809533 173.8847 C -39.776523 173.86486 -39.343806 173.93636 -38.819412 174.04955 C -35.912292 174.67714 -28.381646 176.20261 -25.259516 176.79615 C -23.294986 177.16962 -20.497018 177.70508 -19.041808 177.98626 C -15.881278 178.59695 -11.9321 179.21572 -8.8729198 179.57945 C -6.2135998 179.89563 1.6521102 180.24679 1.4634002 180.04092 C 1.3906002 179.96152 0.2715735 179.45856 -1.0237865 178.92316 C -2.3191465 178.38777 -3.5692915 177.85052 -3.8019115 177.72891 C -4.0345215 177.6073 -5.8920181 176.70923 -7.9293081 175.73317 C -9.9665981 174.7571 -11.81207 173.80848 -12.03035 173.62529 C -12.24863 173.4421 -13.082063 172.95598 -13.882433 172.54525 C -16.746763 171.07533 -21.658198 167.78363 -25.232128 164.939 C -28.976308 161.95885 -33.596536 157.281 -35.506436 154.53653 C -36.267496 153.4429 -38.488683 149.68469 -38.488683 149.49033 C -38.488683 149.40733 -38.848181 148.57861 -39.287601 147.64858 C -41.195361 143.61079 -43.126655 135.94885 -43.436185 131.19119 L -43.597932 128.70503 L -42.828987 128.89003 C -41.831337 129.13003 -37.60236 130.69423 -37.43035 130.88681 C -37.35755 130.96831 -36.821805 131.19831 -36.239725 131.39841 C -35.261465 131.7347 -33.380711 132.65754 -21.687641 138.53957 C -16.416501 141.19114 -11.858487 143.33579 -8.5907665 144.70147 C -7.2083165 145.27923 -5.8390981 145.86179 -5.5480581 145.99597 C -4.6761181 146.39796 2.3225877 148.5883 3.2493377 148.74929 C 3.7524577 148.83669 4.1092335 148.78742 4.1092335 148.63043 C 4.1092335 148.48283 3.9809396 148.36223 3.8239796 148.36223 C 3.5639496 148.36223 -0.16032814 145.46504 -0.78555814 144.7764 C -0.93107814 144.61612 -1.5859265 144.08119 -2.2407665 143.58733 C -8.3561665 138.9753 -18.886364 128.83836 -23.253954 123.35911 C -27.791914 117.66613 -29.876487 114.14247 -32.492667 107.74352 C -36.067677 98.999344 -36.661386 89.803745 -34.200056 81.290355 C -33.617006 79.273655 -32.166209 75.856123 -31.904589 75.882933 C -31.814889 75.891933 -31.04665 76.952825 -30.1972 78.239895 C -28.84034 80.295795 -26.030957 83.932682 -22.526867 88.169522 C -20.439577 90.693292 -12.987845 98.210319 -9.2522248 101.56044 C -6.5850348 103.95238 -1.9146995 107.61118 0.67120049 109.33515 C 1.3254205 109.7713 1.9198069 110.19204 1.9925669 110.26998 C 2.4051969 110.71201 6.8728127 113.36669 7.6149627 113.61086 C 7.8696227 113.69466 8.0779835 113.86834 8.0779835 113.99689 C 8.0779835 114.12544 8.2084483 114.23098 8.3678883 114.23098 C 8.5273183 114.23098 8.9738158 114.44992 9.3600758 114.71777 C 10.513756 115.51777 13.880854 117.26977 17.021624 118.70461 C 20.054094 120.08998 20.643101 120.29461 19.951161 119.72108 C 19.731711 119.53918 19.024647 118.73552 18.380197 117.93515 C 16.985117 116.20255 17.200875 116.44418 14.560275 113.65841 C 13.396115 112.43024 12.174112 111.10067 11.844162 110.70406 C 11.514222 110.30744 10.621247 109.29603 9.8597869 108.45666 C 5.7416069 103.91711 3.201512 100.66398 -0.60830798 95.048688 C -2.812958 91.799268 -3.3847512 90.811423 -5.3702912 86.819733 C -9.5126412 78.492073 -11.749833 72.2324 -12.877843 65.81223 C -13.634663 61.5047 -13.69612 53.254053 -12.9998 49.495913 C -11.88042 43.454443 -9.3403582 38.095744 -5.4250682 33.517044 C -3.9744882 31.820694 -1.9258981 29.828897 -1.6320181 29.828897 C -1.5509181 29.828897 -1.3399961 30.513511 -1.1627961 31.350251 C -0.098706105 36.374981 1.8417552 42.556044 3.4829152 46.149864 C 3.8275452 46.904524 4.1092335 47.588488 4.1092335 47.669668 C 4.1092335 47.925038 6.4207001 52.633118 7.4955901 54.567438 C 12.58861 63.732548 19.587861 72.385942 27.484551 79.280142 C 30.869401 82.235282 34.859001 85.421663 34.998821 85.281843 C 35.059321 85.221343 34.980445 84.933145 34.824155 84.641055 C 33.683455 82.509635 30.550631 71.702953 29.672531 66.870563 C 27.327571 53.965633 27.008553 50.769487 27.001893 40.147647 C 26.996893 31.982137 27.060694 30.573088 27.608574 26.786188 C 27.945444 24.457848 28.39627 21.781891 28.61058 20.839781 C 28.82488 19.897661 29.175461 18.277444 29.389861 17.239484 C 30.895631 9.9495843 35.788389 1.0211941 41.269239 -4.4392959 C 45.753059 -8.9064559 50.8715 -11.912899 56.54996 -13.414459 C 58.27797 -13.871389 58.507481 -13.658742 58.001551 -12.072422 C 57.394441 -10.168882 56.609926 -7.0495733 56.247136 -5.0961033 C 56.071466 -4.1502233 55.824543 -2.8405267 55.698333 -2.1856867 C 54.688793 3.0525433 54.680063 16.873682 55.682313 23.082022 C 55.987703 24.973792 56.401453 27.116922 56.602153 27.844522 C 56.802853 28.572132 57.041003 29.58416 57.130803 30.09348 C 57.220603 30.6028 57.470278 31.614828 57.685808 32.342438 C 57.901338 33.070038 58.505282 35.15264 59.028362 36.97058 C 60.076722 40.61419 62.291892 46.385022 64.055962 50.069522 C 66.156542 54.456862 72.134417 64.02073 72.529347 63.6258 C 72.599747 63.5554 72.538614 62.738934 72.392404 61.810924 C 71.358224 55.229564 71.330895 34.041153 72.345895 25.595563 C 72.945375 20.607153 73.115618 19.545713 74.126148 14.483063 C 75.549378 7.3527634 76.786437 3.1925283 79.200257 -2.5825617 C 82.707467 -10.973612 86.786095 -17.113266 92.772555 -23.011806 C 97.648325 -27.815966 100.55497 -29.941711 105.61518 -32.405031 C 109.60929 -34.349361 111.69209 -35.110271 115.56445 -36.039951 C 118.47423 -36.738541 122.90767 -37.074943 122.90767 -36.597023 C 122.90767 -35.037823 121.08991 -28.191607 120.11817 -26.090687 C 119.90608 -25.632137 119.73267 -25.140694 119.73267 -24.998764 C 119.73267 -24.728734 117.1426 -19.58499 115.97269 -17.53152 C 113.16495 -12.60328 111.52703 -5.5513912 111.53368 1.5825588 C 111.53668 5.1780888 111.67192 6.2880084 112.85815 12.498688 C 113.85353 17.710118 115.26946 22.706528 117.35658 28.373688 C 118.78746 32.258938 121.45826 40.095673 122.63171 43.851813 C 123.33637 46.107383 124.33763 49.262542 124.8569 50.863272 C 126.51804 55.983962 128.04713 62.934158 129.16413 70.442438 C 129.88939 75.317488 129.8344 82.764143 129.04424 86.714313 C 127.22645 95.801903 124.74647 101.06876 118.37616 109.37185 C 112.23948 117.37043 103.97858 124.87248 88.24725 136.73142 C 75.63959 146.23562 66.981291 154.76431 63.010031 161.5914 C 59.803191 167.10433 58.427652 171.43418 58.165882 176.83853 C 57.904832 182.22803 58.914784 186.56643 61.757394 192.26343 C 63.721414 196.19961 65.096067 198.57858 67.255767 201.77809 C 68.177817 203.14407 68.932667 204.36446 68.932667 204.49007 C 68.932667 204.61569 69.025206 204.71848 69.138856 204.71848 C 69.252516 204.71848 69.187472 203.43856 68.994162 201.87421 C 68.464722 197.58952 68.486513 188.35212 69.035503 184.37709 C 69.527153 180.81715 70.751439 175.60022 71.607439 173.416 C 73.059989 169.70956 75.266987 166.12542 77.647897 163.60678 C 78.973607 162.20439 81.646071 160.0039 82.023341 160.0039 C 82.105241 160.0039 82.620037 159.72107 83.167457 159.37551 C 84.506487 158.53021 87.545707 157.45638 90.397507 156.82115 C 92.603847 156.32969 94.861834 156.13455 94.861834 156.43512 C 94.861834 156.50962 93.913045 158.53172 92.753435 160.9289 C 90.542045 165.50034 89.974618 167.19283 89.680238 170.0994 C 89.433218 172.53837 90.193104 177.53043 91.143714 179.71536 C 93.786824 185.79038 95.967535 188.85716 101.51724 194.30154 C 117.33993 209.82395 122.9554 216.89782 125.39899 224.38705 C 126.67544 228.29916 127.23351 234.10247 126.6325 237.21159 C 126.36593 238.59058 126.36724 238.59038 129.19049 236.69792 C 136.07462 232.08339 143.07263 224.69026 145.93158 219.01115 C 147.70195 215.49445 148.41864 211.05032 147.82501 207.27078 C 147.51276 205.28272 147.1732 204.86094 145.69026 204.62029 C 145.19178 204.53939 143.64178 203.91921 142.24602 203.24157 C 140.01303 202.15746 139.38976 201.68691 137.05512 199.32501 C 134.86356 197.10785 134.21165 196.25001 133.30703 194.3956 C 131.79917 191.30456 131.54574 189.95269 131.52471 184.8861 L 131.50663 180.53184 L 130.316 179.82646 C 129.66115 179.43857 128.55222 178.79911 127.85207 178.40536 C 127.15191 178.0116 126.51263 177.51665 126.43148 177.30517 C 126.07119 176.36627 131.48578 172.84863 135.0785 171.68742 C 136.84231 171.11733 140.5124 170.59673 142.80413 170.59188 C 147.07536 170.58288 150.11855 171.48966 154.65767 174.12345 C 155.73197 174.74681 156.11972 174.81458 158.62642 174.8216 C 169.95936 174.8533 179.29487 181.61856 183.10658 192.56108 C 185.05769 198.16225 185.57391 200.67007 187.59674 214.37577 C 187.833 215.9765 188.38403 219.60791 188.82096 222.44556 C 189.68139 228.03366 190.19542 231.53206 190.60276 234.57299 C 190.74575 235.64051 190.92073 236.57199 190.99188 236.64315 C 191.21414 236.8654 195.99275 238.61291 196.09596 238.5097 C 196.14986 238.4558 196.06455 237.40896 195.90683 236.18323 C 195.36735 231.98985 196.2011 226.84278 198.17491 222.18098 C 199.90065 218.10509 201.14213 216.12419 204.5585 211.99452 C 208.23869 207.54594 209.32347 206.38649 218.54679 197.04556 C 225.59085 189.91168 226.89053 188.38923 229.37042 184.36572 C 231.89289 180.27312 232.97433 176.42277 232.97433 171.53239 C 232.97433 167.25097 232.2359 164.93391 229.13167 159.47473 C 228.51107 158.38333 227.91712 157.20348 227.81186 156.85318 L 227.62014 156.21653 L 229.70167 156.38138 C 236.50893 156.92076 243.443 160.60601 246.72337 165.42786 C 247.21837 166.15546 247.69106 166.81029 247.77343 166.88306 C 248.12041 167.18958 249.51049 169.88661 250.50091 172.17473 C 251.17191 173.72493 252.53001 178.03994 252.83255 179.58306 C 254.29397 187.03727 254.4704 193.96362 253.43458 203.19713 C 253.34218 204.02062 253.39412 204.4539 253.58496 204.4539 C 253.74514 204.4539 253.87642 204.2843 253.87642 204.07718 C 253.87642 203.87007 254.1559 203.36405 254.49808 202.9527 C 255.56544 201.66957 259.67933 194.67016 261.15763 191.62161 C 264.3397 185.05952 265.19529 178.31751 263.6598 171.91015 C 263.11393 169.6323 262.50954 167.82229 261.89195 166.61848 C 261.7053 166.25468 261.55178 165.80429 261.55088 165.61751 C 261.54888 165.27522 258.98208 160.88835 257.4917 158.68098 C 256.38423 157.04074 252.30642 152.34505 249.90922 149.94973 C 247.42831 147.47078 241.19121 142.19878 231.94907 134.76874 C 231.02154 134.02308 229.83092 133.04448 229.30324 132.59368 C 228.77556 132.14289 227.27056 130.95227 225.95874 129.94785 C 219.21441 124.78391 211.2824 117.56568 207.37951 113.04036 C 201.83235 106.60855 200.42963 104.64333 197.80387 99.624636 C 195.04399 94.349606 193.9859 90.944417 193.13439 84.597647 C 192.02627 76.338347 193.54806 63.46282 196.85561 53.11223 C 197.20437 52.02082 197.80239 50.056295 198.18421 48.746605 C 199.13988 45.468445 201.30242 39.106297 206.02249 25.685997 C 206.88518 23.233147 209.4662 13.167702 210.1504 9.5882717 C 210.50084 7.7549117 210.60354 5.806855 210.59689 1.121605 C 210.58889 -4.568795 210.54069 -5.1660399 209.8605 -8.0767999 C 209.04615 -11.56143 207.36062 -15.935315 205.75791 -18.722145 C 203.07078 -23.394585 202.16142 -25.509172 200.46262 -31.034572 C 199.96994 -32.637032 199.37846 -35.652004 199.3738 -36.585654 C 199.3723 -36.839342 199.55287 -36.923728 200.37271 -36.890545 z M 318.87607 148.46507 C 318.8049 148.46506 318.6952 148.52002 318.56653 148.62681 C 318.34825 148.80796 318.16965 148.99709 318.16965 149.04746 C 318.16965 149.09786 318.34825 149.0708 318.56653 148.987 C 318.7848 148.9032 318.9634 148.7136 318.9634 148.56584 C 318.9634 148.49809 318.93142 148.46507 318.87607 148.46507 z "
       inkscape:export-filename="idp_logo_twotone_32x32.png"
       inkscape:export-xdpi="1.58"
       inkscape:export-ydpi="1.58" /></g></svg>
